# xmcd CD database file
#
# Track frame offsets:
#	151
#	28064
#	44687
#	58835
#	86506
#	107785
#	118351
#	140258
#	163495
#	187843
#	205374
#	222711
#	241694
#	258771
#	274818
#
# Disc length: 3898 seconds
#
# Revision: 0
# Processed by: cddbd v1.4PL0 Copyright (c) Steve Scherf et al.
# Submitted via: CDex 1.50beta9
#
DISCID=e80f380f
DTITLE=J.B.Hutto - Slidin' the Blues
DYEAR=1982
DGENRE=Blues
TTITLE0=Please help
TTITLE1=Lulu belle's here
TTITLE2=Leave your love in greatern hands
TTITLE3=Lone wolf
TTITLE4=That's the truth
TTITLE5=JB's Crawl
TTITLE6=I fell so good
TTITLE7=Angel face
TTITLE8=Tell me mama
TTITLE9=Danna mill
TTITLE10=Disco hustle
TTITLE11=My heart is achin' to love you
TTITLE12=Look on yonder wall
TTITLE13=Combination boogie
TTITLE14=Donna mill
EXTD=YEAR: 1982
EXTT0=
EXTT1=
EXTT2=
EXTT3=
EXTT4=
EXTT5=
EXTT6=
EXTT7=
EXTT8=
EXTT9=
EXTT10=
EXTT11=
EXTT12=
EXTT13=
EXTT14=
PLAYORDER=
